<svg version="1.0" xmlns="http://www.w3.org/2000/svg"
    width="55px" height="619.000000pt" viewBox="0 0 769.000000 619.000000"
    preserveAspectRatio="xMidYMid meet">

    <g transform="translate(0.000000,619.000000) scale(0.100000,-0.100000)" stroke="none">
    <path d="M3660 5881 c-139 -45 -251 -135 -308 -247 -16 -32 -118 -279 -227
    -549 -108 -269 -279 -695 -380 -945 -381 -946 -892 -2217 -1130 -2810 -136
    -338 -276 -686 -311 -773 -68 -167 -75 -210 -47 -258 32 -54 58 -59 315 -59
    186 0 245 3 289 16 129 39 237 117 296 215 18 30 221 520 451 1089 231 569
    552 1361 714 1760 162 399 319 785 349 859 30 73 64 144 77 157 53 52 141 52
    193 0 14 -13 53 -87 89 -163 35 -76 103 -221 152 -323 99 -205 123 -268 133
    -351 13 -106 20 -88 -483 -1334 -82 -203 -234 -579 -336 -834 -103 -255 -195
    -493 -203 -528 -57 -229 130 -501 379 -552 37 -8 445 -11 1351 -9 l1299 3 34
    37 c45 50 45 88 -4 209 -246 607 -550 1356 -652 1609 -71 173 -263 648 -428
    1055 -165 407 -433 1071 -597 1475 -387 955 -397 981 -437 1047 -56 95 -172
    175 -301 209 -73 19 -210 17 -277 -5z"/>
    </g>
</svg>